<svg id="Capa_1" enable-background="new 0 0 512 512" height="512" viewBox="0 0 512 512" width="512" xmlns="http://www.w3.org/2000/svg" xmlns:xlink="http://www.w3.org/1999/xlink"><linearGradient id="SVGID_1_" gradientUnits="userSpaceOnUse" x1="256" x2="256" y1="451" y2="61"><stop offset="0" stop-color="#fd3a84"/><stop offset="1" stop-color="#ffa68d"/></linearGradient><linearGradient id="SVGID_2_" gradientUnits="userSpaceOnUse" x1="256" x2="256" y1="241" y2="121"><stop offset="0" stop-color="#ffc2cc"/><stop offset="1" stop-color="#fff2f4"/></linearGradient><g><g><g><path d="m497 181c-8.291 0-15 6.709-15 15v120c0 57.891-47.109 105-105 105h-242c-57.891 0-105-47.109-105-105v-120c0-8.291-6.709-15-15-15s-15 6.709-15 15v120c0 74.443 60.557 135 135 135h242c74.443 0 135-60.557 135-135v-120c0-8.291-6.709-15-15-15zm-437 75c0 24.898 20.099 45 45 45h91c24.901 0 45-20.102 45-45 0-8.401 6.599-15 15-15s15 6.599 15 15c0 24.898 20.099 45 45 45h91c24.901 0 45-20.102 45-45v-15l30-67.5-30-52.501v-14.999c0-24.9-20.099-45-45-45h-302c-24.901 0-45 20.1-45 45v15l-30 52.5 30 67.5z" fill="url(#SVGID_1_)"/></g></g><g><g><path d="m170.395 140.395-45 45c-5.859 5.859-5.859 15.352 0 21.211 5.86 5.859 15.352 5.859 21.211 0l45-45c5.859-5.859 5.859-15.352 0-21.211s-15.352-5.86-21.211 0zm180 0-45 45c-5.859 5.859-5.859 15.352 0 21.211 5.86 5.859 15.352 5.859 21.211 0l45-45c5.859-5.859 5.859-15.352 0-21.211s-15.352-5.86-21.211 0zm116.605-19.395h-15v120h15c24.901 0 45-20.102 45-45v-30c0-24.9-20.099-45-45-45zm-467 45v30c0 24.898 20.099 45 45 45h15v-120h-15c-24.901 0-45 20.1-45 45z" fill="url(#SVGID_2_)"/></g></g></g></svg>